<?xml version="1.0" encoding="iso-8859-1"?>
<!-- Generator: Adobe Illustrator 19.0.0, SVG Export Plug-In . SVG Version: 6.00 Build 0)  -->
<svg version="1.1" id="Capa_1" xmlns="http://www.w3.org/2000/svg" xmlns:xlink="http://www.w3.org/1999/xlink" x="0px" y="0px"
	 viewBox="0 0 511.517 511.517" style="enable-background:new 0 0 511.517 511.517;" xml:space="preserve">
<path style="fill:#965353;" d="M59.914,396.264L18.427,385.07c-12.79-3.435-18.067-25.175-11.752-48.68
	c6.237-23.419,21.744-39.648,34.535-36.214l82.653,22.303l369.23,99.687l-22.786,84.894L59.914,396.264z"/>
<g style="opacity:0.2;">
	<polygon points="179.897,378.599 182.61,377.864 173.215,372.4 72.271,399.597 87.095,403.602 	"/>
</g>
<g>
	<path style="fill:#FFD2A6;" d="M22.104,466.685c-3.997-14.949-3.759-27.978,0.48-29.094c4.316-1.117,10.952,9.992,14.949,24.94
		c3.997,14.949,3.836,27.978-0.48,29.095C32.814,492.75,26.101,481.634,22.104,466.685z"/>
	<path style="fill:#FFD2A6;" d="M18.427,422.165c12.791-3.442,28.298,12.787,34.531,36.206c6.315,23.505,1.038,45.245-11.748,48.688
		c-12.791,3.435-28.298-12.794-34.535-36.214C0.36,447.341,5.637,425.6,18.427,422.165z M37.533,462.531
		c-3.997-14.948-10.633-26.058-14.949-24.94c-4.239,1.116-4.477,14.145-0.48,29.094s10.71,26.065,14.949,24.941
		C41.37,490.509,41.53,477.481,37.533,462.531z"/>
	<path style="fill:#FFD2A6;" d="M489.417,466.685c3.996-14.949,3.754-27.978-0.484-29.094c-4.317-1.117-10.952,9.992-14.949,24.94
		c-3.997,14.949-3.833,27.978,0.484,29.095C478.698,492.75,485.42,481.634,489.417,466.685z M493.093,422.165
		c12.787,3.435,18.064,25.176,11.749,48.68c-6.237,23.42-21.741,39.648-34.535,36.214c-12.786-3.442-18.063-25.183-11.749-48.688
		C464.796,434.952,480.299,418.723,493.093,422.165z"/>
	<path style="fill:#FFD2A6;" d="M488.933,437.591c4.238,1.116,4.48,14.145,0.484,29.094c-3.997,14.949-10.719,26.065-14.949,24.941
		c-4.317-1.117-4.481-14.146-0.484-29.095C477.981,447.583,484.615,436.474,488.933,437.591z"/>
</g>
<g style="opacity:0.2;">
	<path d="M22.104,466.685c-3.997-14.949-3.759-27.978,0.48-29.094c4.316-1.117,10.952,9.992,14.949,24.94
		c3.997,14.949,3.836,27.978-0.48,29.095C32.814,492.75,26.101,481.634,22.104,466.685z"/>
</g>
<g style="opacity:0.2;">
	<path d="M488.933,437.591c4.238,1.116,4.48,14.145,0.484,29.094c-3.997,14.949-10.719,26.065-14.949,24.941
		c-4.317-1.117-4.481-14.146-0.484-29.095C477.981,447.583,484.615,436.474,488.933,437.591z"/>
</g>
<path style="fill:#965353;" d="M447.926,397.302l-113.27,30.539l-54.675,14.785L41.21,507.059
	c12.786-3.442,18.063-25.183,11.748-48.688c-6.233-23.419-21.74-39.648-34.531-36.206l45.164-12.232l116.306-31.334l207.835-56.12
	l82.575-22.303c12.794-3.435,28.298,12.795,34.535,36.214c6.315,23.505,1.038,45.245-11.749,48.68L447.926,397.302z"/>
<g style="opacity:0.2;">
	<polygon points="334.656,427.841 279.982,442.626 255.801,449.152 285.414,457.146 334.656,443.827 447.926,413.289 
		454.062,411.627 424.452,403.633 	"/>
</g>
<g style="opacity:0.4;">
	<path style="fill:#FFCE54;" d="M388.2,322.354l-0.469,0.125c0,0-53.895,25.082-93.551,45.987l-170.318-45.987l-0.375-0.102
		c27.501,44.254,76.408,73.809,132.348,73.809c3.403,0,6.776-0.117,10.125-0.335c1.233-0.078,2.443-0.234,3.661-0.344
		c2.092-0.188,4.192-0.352,6.261-0.617c1.499-0.195,2.966-0.468,4.45-0.702c1.764-0.281,3.535-0.539,5.276-0.882
		c1.562-0.305,3.099-0.68,4.652-1.031c1.632-0.366,3.271-0.718,4.887-1.14c1.538-0.405,3.045-0.866,4.567-1.312
		c1.6-0.468,3.2-0.937,4.785-1.451c1.436-0.477,2.857-1,4.277-1.515c1.64-0.602,3.287-1.194,4.902-1.851
		c1.272-0.507,2.521-1.054,3.771-1.592c1.78-0.766,3.544-1.554,5.293-2.381c1.007-0.484,2.006-0.992,3.005-1.491
		c1.109-0.563,2.241-1.069,3.334-1.655l-0.141-0.039C353.228,364.86,373.712,345.679,388.2,322.354z"/>
</g>
<path style="fill:#FFCE54;" d="M300.044,194.108c0,0,33.895,25.737,33.895,80.729c0,42.927-34.934,77.782-78.103,77.782
	c-43.165,0-78.094-34.777-78.094-77.782c0-85.367,66.666-131.97,66.666-131.97s9.352,59.555,20.945,71.061
	C276.859,225.442,300.044,194.108,300.044,194.108z"/>
<g style="opacity:0.2;">
	<path d="M300.044,194.108c0,0-2.982,4.004-7.308,8.618c10.047,11.647,25.215,35.292,25.215,72.111
		c0,40.241-30.702,73.395-70.112,77.384c2.631,0.266,5.296,0.398,7.997,0.398c43.169,0,78.103-34.855,78.103-77.782
		C333.939,219.845,300.044,194.108,300.044,194.108z"/>
</g>
<g style="opacity:0.6;">
	<path style="fill:#FFFFFF;" d="M193.73,274.837c0-60.355,33.251-101.221,52.778-120.05c-1.331-7.081-2.1-11.92-2.1-11.92
		s-66.666,46.604-66.666,131.97c0,43.005,34.929,77.782,78.094,77.782c2.697,0,5.363-0.133,7.994-0.398
		C224.424,348.239,193.73,315.149,193.73,274.837z"/>
</g>
<path style="fill:#FC6E51;" d="M395.726,240.313c0,28.848-8.79,55.632-23.903,77.934c-25.097,37.01-67.704,61.39-115.986,61.39
	c-24.137,0-46.842-6.073-66.666-16.784c-21.823-11.834-40.128-29.18-52.997-50.202c-12.791-21.101-20.226-45.886-20.226-72.337
	c0-150.443,143.569-233.736,148.047-236.297c-0.32,1.601-11.515,49.563,8.868,69.866c20.71,20.625,47.805-6.791,47.805-6.791
	S395.726,141.829,395.726,240.313z M333.939,274.837c0-54.992-33.895-80.729-33.895-80.729s-23.186,31.334-34.691,19.82
	c-11.593-11.506-20.945-71.061-20.945-71.061s-66.666,46.604-66.666,131.97c0,43.005,34.929,77.782,78.094,77.782
	C299.005,352.619,333.939,317.764,333.939,274.837z"/>
<g style="opacity:0.2;">
	<path d="M320.667,67.091c0,0-3.652,3.669-9.266,7.314c18.392,21.038,68.336,85.549,68.336,165.907
		c0,28.848-8.789,55.632-23.902,77.934c-23.7,34.957-63.036,58.618-108.004,61.14c2.65,0.148,5.316,0.25,8.005,0.25
		c48.282,0,90.89-24.38,115.986-61.39c15.113-22.302,23.903-49.086,23.903-77.934C395.726,141.829,320.667,67.091,320.667,67.091z"
		/>
</g>
<g style="opacity:0.5;">
	<path style="fill:#FFFFFF;" d="M205.158,362.853c-21.823-11.834-40.128-29.18-52.997-50.202
		c-12.791-21.101-20.226-45.886-20.226-72.337c0-119.483,90.502-196.555,130.018-224.517c0.898-6.698,1.948-11.304,2.042-11.78
		c-4.478,2.561-148.047,85.854-148.047,236.297c0,26.452,7.436,51.237,20.226,72.337c12.869,21.022,31.174,38.368,52.997,50.202
		c19.824,10.711,42.529,16.784,66.666,16.784c2.682,0,5.336-0.102,7.979-0.25C242.667,378.2,222.773,372.368,205.158,362.853z"/>
</g>
<g>
	<path style="fill:#3A3847;" d="M473.82,511.517c-0.008,0-0.008,0-0.008,0c-1.545,0-3.067-0.203-4.543-0.602
		c-15.145-4.075-21.546-27.611-14.566-53.582c6.783-25.48,24.496-43.068,39.43-39.024c7.666,2.054,13.302,9.063,15.886,19.734
		c2.373,9.82,1.904,21.843-1.319,33.841C502.586,494.842,487.91,511.517,473.82,511.517z M489.58,425.701
		c-8.938,0-21.545,12.607-27.157,33.7c-5.629,20.929-1.538,40.982,8.922,43.801c9.281,2.459,23.481-10.296,29.633-33.387
		c2.889-10.734,3.333-21.351,1.265-29.898c-1.827-7.58-5.542-12.646-10.188-13.896C491.259,425.811,490.424,425.701,489.58,425.701z
		"/>
	<path style="fill:#3A3847;" d="M475.076,495.7L475.076,495.7c-0.351,0-1.304-0.125-1.632-0.211
		c-1.217-0.312-2.966-1.17-4.293-3.442c-3.638-6.237-1.881-19.866,0.968-30.546c1.249-4.676,8.002-27.985,18.196-27.985
		c0.336,0,1.288,0.117,1.616,0.203c1.241,0.327,2.975,1.187,4.286,3.45c3.652,6.276,1.904,19.898-0.938,30.546
		C492.516,470.58,485.498,495.7,475.076,495.7z M487.676,441.978c-2.03,1.912-6.503,9.133-9.828,21.584
		c-3.255,12.154-3.091,20.547-2.193,23.552c2.303-2.162,6.666-9.352,9.897-21.459C488.839,453.375,488.612,444.905,487.676,441.978z
		"/>
	<path style="fill:#3A3847;" d="M18.431,389.067c-0.343,0-0.694-0.047-1.042-0.141c-7.666-2.053-13.31-9.063-15.886-19.734
		c-2.377-9.82-1.913-21.842,1.312-33.84c4.391-16.487,13.552-30.452,23.899-36.433c5.234-3.028,10.585-3.926,15.535-2.6
		c2.131,0.57,3.396,2.764,2.822,4.895c-0.57,2.132-2.759,3.396-4.898,2.818c-2.865-0.749-6.046-0.156-9.458,1.804
		c-8.579,4.965-16.311,17.064-20.175,31.584c-2.885,10.733-3.334,21.351-1.269,29.898c1.834,7.579,5.55,12.646,10.195,13.896
		c2.131,0.569,3.396,2.763,2.822,4.895C21.807,387.888,20.196,389.067,18.431,389.067z"/>
	<path style="fill:#3A3847;" d="M123.867,326.476c-0.347,0-0.695-0.047-1.046-0.141l-82.653-22.303
		c-2.131-0.57-3.392-2.764-2.818-4.895c0.578-2.139,2.76-3.388,4.902-2.818l82.653,22.303c2.131,0.57,3.392,2.764,2.818,4.895
		C127.239,325.305,125.627,326.476,123.867,326.476z"/>
	<path style="fill:#3A3847;" d="M493.093,426.162c-0.343,0-0.694-0.047-1.038-0.141l-41.49-11.194
		c-2.131-0.57-3.396-2.764-2.818-4.895c0.578-2.131,2.787-3.38,4.895-2.818l41.491,11.194c2.131,0.57,3.396,2.764,2.817,4.895
		C496.474,424.991,494.858,426.162,493.093,426.162z"/>
	<path style="fill:#3A3847;" d="M59.918,400.261c-0.347,0-0.695-0.047-1.046-0.141l-41.487-11.194
		c-2.131-0.569-3.392-2.763-2.818-4.895c0.574-2.146,2.759-3.403,4.902-2.817l41.487,11.193c2.131,0.57,3.392,2.764,2.818,4.895
		C63.29,399.09,61.678,400.261,59.918,400.261z"/>
	<path style="fill:#3A3847;" d="M470.307,511.056c-0.344,0-0.694-0.047-1.038-0.141l-186.492-50.366
		c-2.132-0.569-3.396-2.764-2.818-4.895c0.569-2.131,2.803-3.38,4.895-2.818l186.492,50.366c2.131,0.57,3.396,2.764,2.818,4.895
		C473.687,509.885,472.071,511.056,470.307,511.056z"/>
	<path style="fill:#3A3847;" d="M107.958,388.746c-0.351,0-0.71-0.047-1.066-0.14c-26.705-7.361-52.45-14.552-52.45-14.552
		c-2.123-0.593-3.364-2.794-2.771-4.926c0.598-2.123,2.811-3.349,4.926-2.771c0,0,25.729,7.189,52.42,14.535
		c2.127,0.585,3.376,2.787,2.79,4.918C111.319,387.583,109.71,388.746,107.958,388.746z"/>
	<path style="fill:#3A3847;" d="M37.705,511.517c-14.102,0-28.774-16.675-34.894-39.641c-3.22-11.99-3.685-24.013-1.308-33.833
		c2.576-10.671,8.22-17.681,15.886-19.734c14.941-4.028,32.646,13.544,39.434,39.032c6.975,25.963,0.574,49.499-14.574,53.574
		C40.777,511.314,39.246,511.517,37.705,511.517z M21.94,425.701c-0.843,0-1.678,0.109-2.475,0.32
		c-4.645,1.249-8.361,6.315-10.195,13.896c-2.065,8.548-1.616,19.164,1.265,29.891c6.151,23.099,20.46,35.838,29.636,33.395
		c10.46-2.818,14.547-22.872,8.926-43.793C43.482,438.309,30.882,425.701,21.94,425.701z"/>
	<path style="fill:#3A3847;" d="M36.444,495.7c-10.417,0-17.435-25.12-18.2-27.985c-2.849-10.647-4.594-24.27-0.949-30.546
		c1.312-2.264,3.049-3.123,4.271-3.442c0.332-0.086,1.292-0.211,1.635-0.211c10.195,0,16.944,23.31,18.193,27.985
		c2.857,10.68,4.614,24.316,0.976,30.546c-1.323,2.272-3.076,3.131-4.317,3.45C37.728,495.583,36.779,495.7,36.444,495.7z
		 M23.806,442.111c-0.91,3.029-1.077,11.436,2.158,23.544c3.388,12.661,7.994,19.944,10.199,21.725
		c0.562-2.139,0.979-10.835-2.49-23.817C30.425,451.423,26.093,444.249,23.806,442.111z"/>
	<path style="fill:#3A3847;" d="M493.093,389.067c-1.764,0-3.38-1.179-3.855-2.958c-0.578-2.132,0.687-4.325,2.817-4.895
		c4.646-1.25,8.36-6.316,10.188-13.896c2.068-8.548,1.624-19.165-1.257-29.891c-3.872-14.527-11.6-26.627-20.18-31.584
		c-3.403-1.976-6.588-2.568-9.461-1.812c-2.154,0.578-4.324-0.687-4.895-2.818c-0.578-2.131,0.688-4.324,2.818-4.895
		c4.902-1.326,10.289-0.437,15.534,2.6c10.352,5.98,19.508,19.945,23.903,36.44c3.216,11.99,3.685,24.012,1.312,33.832
		c-2.584,10.671-8.22,17.682-15.886,19.734C493.78,389.02,493.437,389.067,493.093,389.067z"/>
	<path style="fill:#3A3847;" d="M387.732,326.476c-1.764,0-3.38-1.171-3.856-2.959c-0.577-2.123,0.688-4.324,2.818-4.895
		l82.575-22.303c2.123-0.577,4.324,0.688,4.895,2.811c0.578,2.131-0.688,4.332-2.818,4.902l-82.575,22.303
		C388.427,326.429,388.075,326.476,387.732,326.476z"/>
	<path style="fill:#3A3847;" d="M18.423,426.162c-1.76,0-3.372-1.171-3.852-2.951c-0.578-2.131,0.679-4.324,2.81-4.902
		l161.478-43.566c2.107-0.563,4.324,0.679,4.898,2.817c0.574,2.132-0.691,4.325-2.822,4.895L19.473,426.022
		C19.122,426.115,18.771,426.162,18.423,426.162z"/>
	<path style="fill:#3A3847;" d="M41.206,511.056c-1.761,0-3.373-1.171-3.856-2.959c-0.574-2.131,0.687-4.324,2.818-4.895
		l451.879-121.988c2.171-0.563,4.325,0.687,4.902,2.81c0.578,2.132-0.679,4.325-2.81,4.902L42.252,510.915
		C41.901,511.009,41.553,511.056,41.206,511.056z"/>
	<path style="fill:#3A3847;" d="M95.484,430.316c-1.765,0-3.377-1.18-3.856-2.959c-0.574-2.139,0.694-4.324,2.826-4.902
		l114.468-30.694c2.147-0.523,4.321,0.702,4.895,2.825c0.574,2.14-0.695,4.325-2.826,4.902L96.522,430.183
		C96.174,430.269,95.826,430.316,95.484,430.316z"/>
	<path style="fill:#3A3847;" d="M334.656,431.837c-1.756,0-3.364-1.163-3.849-2.927c-0.133-0.469-3.106-11.569,2.498-21.374
		c3.443-6.034,9.251-10.18,17.26-12.334c22.818-6.081,103.543-28.618,104.355-28.844c2.123-0.617,4.332,0.647,4.926,2.771
		c0.593,2.132-0.648,4.333-2.771,4.926c-0.813,0.227-81.584,22.779-104.44,28.868c-5.87,1.576-10.039,4.465-12.389,8.579
		c-3.911,6.838-1.757,15.19-1.741,15.269c0.594,2.132-0.655,4.333-2.779,4.918C335.367,431.79,335.008,431.837,334.656,431.837z"/>
	<path style="fill:#3A3847;" d="M395.726,244.31c-2.209,0-3.997-1.788-3.997-3.997c0-85.253-58.149-153.347-71.279-167.633
		c-5.324,4.497-16.917,12.834-29.742,12.881c-0.039,0.008-0.078,0.008-0.117,0.008c-7.736,0-14.652-2.982-20.546-8.853
		c-19.754-19.68-12.662-61.045-10.02-73.254c0.164-0.75,0.602-1.733,1.144-2.272c1.569-1.561,4.13-1.6,5.69-0.039
		c1.164,1.163,1.483,2.842,0.922,4.271c-2.015,9.555-9.013,48.781,7.899,65.627c4.411,4.387,9.282,6.526,14.91,6.526
		c0.031,0,0.055,0,0.086-0.008c13.911-0.055,27.018-13.153,27.15-13.286c0.757-0.757,1.601-1.405,2.841-1.187
		c1.055,0,2.069,0.421,2.818,1.163c0.766,0.757,76.236,77.056,76.236,176.056C399.722,242.522,397.935,244.31,395.726,244.31z"/>
	<path style="fill:#3A3847;" d="M115.947,244.31c-2.209,0-3.997-1.788-3.997-3.997C111.95,88.121,255.883,4.047,262.011,0.55
		c1.905-1.093,4.356-0.43,5.449,1.483c1.101,1.913,0.438,4.356-1.483,5.449c-5.96,3.411-146.032,85.222-146.032,232.831
		C119.945,242.522,118.156,244.31,115.947,244.31z"/>
	<path style="fill:#3A3847;" d="M255.836,383.634c-23.949,0-47.661-5.973-68.566-17.268c-22.428-12.163-41.272-30.016-54.504-51.631
		c-13.622-22.467-20.815-48.197-20.815-74.422c0-2.209,1.788-3.997,3.997-3.997s3.997,1.788,3.997,3.997
		c0,24.766,6.795,49.059,19.648,70.269c12.49,20.397,30.296,37.267,51.482,48.758c19.738,10.663,42.131,16.3,64.761,16.3
		c2.21,0,3.997,1.787,3.997,3.997C259.833,381.846,258.046,383.634,255.836,383.634z"/>
	<path style="fill:#3A3847;" d="M255.836,383.634c-2.209,0-3.997-1.788-3.997-3.997c0-2.21,1.788-3.997,3.997-3.997
		c45.229,0,87.353-22.295,112.677-59.633c15.191-22.412,23.216-48.586,23.216-75.694c0-2.209,1.788-3.997,3.997-3.997
		s3.996,1.788,3.996,3.997c0,28.708-8.501,56.436-24.59,80.175C348.318,360.028,303.72,383.634,255.836,383.634z"/>
	<path style="fill:#3A3847;" d="M333.939,278.833c-2.209,0-3.997-1.787-3.997-3.996c0-42.845-21.382-67.303-29.367-74.937
		c-5.363,6.557-17.416,19.734-28.095,20.53c-3.849,0.242-7.275-0.991-9.953-3.677c-10.145-10.07-18.037-49.983-20.944-66.557
		c-15.34,12.912-59.843,56.276-59.843,124.64c0,2.209-1.788,3.996-3.997,3.996s-3.997-1.787-3.997-3.996
		c0-86.452,67.688-134.765,68.372-135.249c1.14-0.781,2.591-0.945,3.856-0.398c1.269,0.539,2.17,1.694,2.385,3.06
		c3.677,23.419,11.991,61.077,19.812,68.844c1.054,1.062,2.179,1.475,3.716,1.358c7.385-0.539,19.22-12.998,24.949-20.726
		c0.633-0.859,1.585-1.421,2.646-1.577c1.038-0.141,2.123,0.125,2.982,0.772c1.443,1.101,35.471,27.588,35.471,83.915
		C337.935,277.046,336.148,278.833,333.939,278.833z"/>
	<path style="fill:#3A3847;" d="M255.836,356.616c-45.265,0-82.091-36.69-82.091-81.779c0-2.209,1.788-3.997,3.997-3.997
		s3.997,1.788,3.997,3.997c0,40.687,33.239,73.785,74.097,73.785c2.21,0,3.997,1.787,3.997,3.997
		C259.833,354.828,258.046,356.616,255.836,356.616z"/>
	<path style="fill:#3A3847;" d="M255.836,356.616c-2.209,0-3.997-1.788-3.997-3.997c0-2.21,1.788-3.997,3.997-3.997
		c40.858,0,74.105-33.099,74.105-73.785c0-2.209,1.788-3.997,3.997-3.997s3.996,1.788,3.996,3.997
		C337.935,319.926,301.105,356.616,255.836,356.616z"/>
</g>
<g>
</g>
<g>
</g>
<g>
</g>
<g>
</g>
<g>
</g>
<g>
</g>
<g>
</g>
<g>
</g>
<g>
</g>
<g>
</g>
<g>
</g>
<g>
</g>
<g>
</g>
<g>
</g>
<g>
</g>
</svg>
