<?xml version="1.0" encoding="iso-8859-1"?>
<!-- Generator: Adobe Illustrator 19.0.0, SVG Export Plug-In . SVG Version: 6.00 Build 0)  -->
<svg version="1.1" id="Layer_1" xmlns="http://www.w3.org/2000/svg" xmlns:xlink="http://www.w3.org/1999/xlink" x="0px" y="0px"
	 viewBox="0 0 511.999 511.999" style="enable-background:new 0 0 511.999 511.999;" xml:space="preserve">
<g>
	<path style="fill:#FFD089;" d="M296.071,196.458v-17.374c33.287,0,60.368,27.081,60.368,60.368s-27.081,60.368-60.368,60.368
		v-17.374c23.707,0,42.994-19.287,42.994-42.994S319.778,196.458,296.071,196.458z"/>
	<path style="fill:#FFD089;" d="M215.928,196.458v-17.374c-33.287,0-60.368,27.081-60.368,60.368s27.081,60.368,60.368,60.368
		v-17.374c-23.707,0-42.994-19.287-42.994-42.994S192.22,196.458,215.928,196.458z"/>
</g>
<g>
	<path style="fill:#76DEDD;" d="M238.748,491.432L229.331,312.1l-17.349,0.912l9.068,172.704l0.331,0.107l-25.187,9.238
		c-4.557,1.502-7.032,6.414-5.529,10.971c1.502,4.558,6.414,7.031,10.971,5.529l31.144-11.423
		C236.585,498.883,238.931,495.245,238.748,491.432z"/>
	<path style="fill:#76DEDD;" d="M273.25,491.432l9.415-179.332l17.349,0.912l-9.068,172.704l-0.331,0.107l25.187,9.238
		c4.557,1.502,7.032,6.414,5.529,10.971c-1.502,4.558-6.414,7.031-10.971,5.529l-31.144-11.423
		C275.411,498.883,273.067,495.245,273.25,491.432z"/>
</g>
<path style="fill:#5C4853;" d="M255.992,0c-27.702,0-50.24,22.545-50.24,50.256v39.247h100.397l0.1-39.247
	C306.247,22.545,283.702,0,255.992,0z"/>
<path style="fill:#F7D0BC;" d="M231.588,46.149c-15.063,8.391-25.342,24.988-25.793,43.354l21.873,56.017h56.661l21.818-56.017
	L231.588,46.149z"/>
<path style="fill:#E6773D;" d="M255.99,39.819c-8.857,0-17.176,2.303-24.402,6.33c15.946,29.151,47.962,43.354,74.56,43.354
	C306.147,61.745,283.747,39.819,255.99,39.819z"/>
<path style="fill:#FFD089;" d="M285.245,169.578h-4.236l-8.687,11.582l-8.687-11.582h-15.273l-8.687,11.582l-8.687-11.582h-4.236
	c-10.73,0-19.508,8.778-19.508,19.508v113.148l48.754,23.165l48.754-23.165V189.086
	C304.753,178.356,295.974,169.578,285.245,169.578z"/>
<path style="fill:#76DEDD;" d="M207.245,302.235c0,26.926,21.828,48.754,48.754,48.754s48.754-21.828,48.754-48.754H207.245z"/>
<g>
	<path style="fill:#5C4853;" d="M248.363,169.578v144.24c0,4.797-3.889,8.687-8.687,8.687c-4.797,0-8.687-3.889-8.687-8.687v-144.24
		H248.363z"/>
	<path style="fill:#5C4853;" d="M281.009,169.578v144.24c0,4.797-3.888,8.687-8.687,8.687s-8.687-3.889-8.687-8.687v-144.24H281.009
		z"/>
</g>
<path style="fill:#E6773D;" d="M205.754,89.502l21.914,32.852c0,0,13.853-5.791,28.331-5.791c14.478,0,28.331,5.791,28.331,5.791
	l21.818-32.852l0.096,29.831c0,12.416-4.506,23.779-11.953,32.535c-6.197,7.285-14.432,12.775-23.814,15.59
	c-4.587,1.378-9.44,2.12-14.478,2.12c-5.038,0-9.891-0.741-14.478-2.12c-9.382-2.815-17.617-8.305-23.814-15.59
	c-7.448-8.756-11.953-20.119-11.953-32.535L205.754,89.502L205.754,89.502z"/>
<g>
</g>
<g>
</g>
<g>
</g>
<g>
</g>
<g>
</g>
<g>
</g>
<g>
</g>
<g>
</g>
<g>
</g>
<g>
</g>
<g>
</g>
<g>
</g>
<g>
</g>
<g>
</g>
<g>
</g>
</svg>
