<?xml version="1.0" encoding="UTF-8" standalone="no"?>
<svg
   xmlns:dc="http://purl.org/dc/elements/1.1/"
   xmlns:cc="http://creativecommons.org/ns#"
   xmlns:rdf="http://www.w3.org/1999/02/22-rdf-syntax-ns#"
   xmlns:svg="http://www.w3.org/2000/svg"
   xmlns="http://www.w3.org/2000/svg"
   version="1.1"
   id="svg4820"
   viewBox="0 0 377.99998 341.99999"
   height="3.8in"
   width="4.1999998in">
  <defs
     id="defs4822" />
  <metadata
     id="metadata4825">
    <rdf:RDF>
      <cc:Work
         rdf:about="">
        <dc:format>image/svg+xml</dc:format>
        <dc:type
           rdf:resource="http://purl.org/dc/dcmitype/StillImage" />
        <dc:title></dc:title>
      </cc:Work>
    </rdf:RDF>
  </metadata>
  <g
     transform="translate(-201.50391,-582.57141)"
     id="layer1">
    <path
       id="path4509-0-0-7-8-0-0-9"
       d="m 357.74912,605.99845 c -46.34212,25.90445 -73.61932,81.052 -66.4998,133.60095 5.96591,52.80246 46.11674,99.59841 97.49571,113.29751 37.40118,10.9007 78.84713,3.8251 111.3721,-17.3004 21.39622,-12.4731 43.01601,-24.595 64.2717,-37.28895 7.30948,-6.9969 -1.12778,-15.2738 -4.39279,-21.9724 -10.34203,-17.6705 -20.27632,-35.60425 -30.87264,-53.11048 -7.04376,-7.39448 -15.19072,1.16779 -21.68787,4.74309 -20.87477,12.86886 -41.38662,26.37049 -62.49805,38.82689 -27.23222,13.8442 -65.52261,-9.5048 -66.5183,-40.88023 -2.02579,-19.98339 9.11909,-40.50184 27.68455,-48.92696 l 84.97006,-44.02062 -102.1607,-45.003 c -10.38756,6.01063 -20.77853,12.0285 -31.16396,18.0346 z"
       style="opacity:1;fill:#054f45;fill-opacity:1;stroke:none;stroke-width:2.5;stroke-linecap:butt;stroke-linejoin:round;stroke-miterlimit:4;stroke-dasharray:none;stroke-dashoffset:0;stroke-opacity:1" />
    <path
       id="rect4306-1-8-5-1-8-4-4-1"
       d="m 303.72663,587.98615 c 0,87.28213 0,174.61141 0,260.96886 0,4.986 -4.014,9 -9.00001,9 l -72,0 c -4.986,0 -9.16178,-4.0166 -9,-9 2.99285,-92.18735 2.83863,-131.629 4.49181,-216.00016 z"
       style="opacity:1;fill:#149c88;fill-opacity:1;stroke:none;stroke-width:2.5;stroke-linecap:butt;stroke-linejoin:round;stroke-miterlimit:4;stroke-dasharray:none;stroke-dashoffset:0;stroke-opacity:1" />
    <text
       id="text5380-2"
       y="918.61255"
       x="205.58203"
       style="font-style:normal;font-weight:normal;font-size:17.5px;line-height:125%;font-family:sans-serif;letter-spacing:0px;word-spacing:0px;fill:#000000;fill-opacity:1;stroke:none;stroke-width:1px;stroke-linecap:butt;stroke-linejoin:miter;stroke-opacity:1"
       xml:space="preserve"><tspan
         style="font-size:40px"
         id="tspan5384-7"
         y="918.61255"
         x="205.58203"><tspan
           id="tspan5388-6"
           style="fill:#149c88;fill-opacity:1">INDIE</tspan><tspan
           id="tspan5390-4"
           style="fill:#054f45;fill-opacity:1"> COLLECTIVE</tspan></tspan></text>
  </g>
</svg>
